<?xml version="1.0" standalone="no"?>
<!DOCTYPE svg PUBLIC "-//W3C//DTD SVG 20010904//EN"
 "http://www.w3.org/TR/2001/REC-SVG-20010904/DTD/svg10.dtd">
<svg version="1.0" xmlns="http://www.w3.org/2000/svg"
 width="1280.000000pt" height="681.000000pt" viewBox="0 0 1280.000000 681.000000"
 preserveAspectRatio="xMidYMid meet">
<metadata>
Created by potrace 1.15, written by Peter Selinger 2001-2017
</metadata>
<g transform="translate(0.000000,681.000000) scale(0.100000,-0.100000)"
fill="#f44336" stroke="none">
<path d="M5721 5857 c-28 -42 -51 -112 -123 -372 -48 -176 -98 -357 -109 -403
-20 -76 -24 -83 -43 -78 -62 18 -76 19 -76 2 0 -9 3 -16 8 -16 4 0 20 -12 35
-25 23 -21 26 -28 17 -45 -8 -15 -17 -18 -38 -14 -36 7 -53 -13 -57 -68 -1
-24 -3 -43 -4 -43 -1 0 -4 -28 -6 -62 -2 -35 -12 -74 -21 -88 -13 -20 -14 -28
-4 -40 10 -12 9 -16 -4 -21 -10 -4 -15 -12 -12 -20 3 -7 0 -14 -6 -16 -6 -2
-12 -15 -14 -29 -1 -13 -5 -37 -8 -54 -16 -81 -16 -92 2 -116 21 -27 52 -87
52 -101 0 -5 11 -25 25 -46 41 -62 87 -218 82 -277 -5 -57 -1 -75 18 -75 30 0
33 -60 5 -105 -11 -18 -27 -73 -36 -121 -13 -73 -22 -95 -46 -121 -28 -29 -30
-37 -32 -112 -1 -44 -4 -83 -7 -86 -4 -3 -52 -8 -109 -11 -80 -3 -125 -12
-209 -39 -125 -40 -163 -43 -210 -14 -31 19 -47 21 -146 18 l-111 -4 -49 -40
c-27 -22 -60 -51 -73 -64 -25 -25 -72 -120 -72 -145 0 -21 -28 -70 -54 -95
-20 -19 -23 -28 -15 -42 7 -14 5 -26 -7 -44 -18 -28 -21 -29 -81 -25 -26 1
-43 -3 -43 -9 0 -6 -6 -11 -14 -11 -21 0 -57 -50 -54 -74 2 -14 11 -21 26 -21
14 0 33 -13 48 -33 15 -18 35 -32 47 -32 13 0 30 -12 42 -30 11 -16 25 -30 31
-30 6 0 34 24 62 54 31 32 64 57 81 61 16 3 35 13 42 21 6 8 17 14 23 14 16 0
86 73 86 90 0 7 8 22 17 33 12 13 18 37 18 80 1 34 6 71 12 82 6 11 18 44 28
73 17 53 41 77 69 66 20 -8 20 -18 1 -34 -37 -30 -56 -74 -75 -166 -17 -83
-19 -118 -14 -249 l7 -153 -38 -47 c-40 -48 -96 -82 -212 -126 l-62 -24 -20
-75 c-11 -41 -29 -122 -41 -180 -21 -113 -39 -178 -52 -196 -5 -7 -6 -30 -2
-51 l6 -40 -51 -7 c-91 -12 -131 -84 -86 -156 13 -21 29 -41 35 -45 12 -8 13
-80 1 -103 -4 -9 -11 -41 -14 -69 -9 -79 12 -98 133 -124 52 -11 136 -22 185
-25 70 -4 105 -12 155 -34 36 -16 99 -34 140 -39 41 -6 116 -15 165 -22 50 -6
113 -15 140 -20 110 -21 189 -29 385 -39 206 -10 293 -21 495 -60 220 -43 304
-49 514 -40 207 9 264 17 352 48 41 14 55 23 57 41 3 22 3 22 -25 7 -16 -8
-35 -22 -42 -30 -19 -23 -54 -21 -47 2 7 22 -34 66 -41 45 -7 -18 -21 -16 -25
4 -2 13 -11 9 -42 -20 -21 -20 -43 -37 -47 -37 -13 0 -11 28 2 32 8 3 6 10 -6
21 -31 32 -5 45 83 41 89 -5 126 10 106 43 -6 10 -18 18 -25 18 -19 0 -103 50
-142 85 -26 23 -45 29 -102 35 -39 3 -107 13 -152 22 l-82 16 -5 41 c-13 105
-14 268 -2 351 7 49 10 103 6 120 -13 60 24 367 49 413 8 15 116 62 142 62 9
0 31 -11 50 -25 65 -47 125 -73 244 -105 93 -26 126 -40 146 -61 52 -56 63
-175 28 -305 -12 -43 -25 -105 -28 -137 -7 -58 -19 -77 -53 -77 -23 0 -28 -10
-36 -82 -9 -75 -6 -94 15 -102 31 -12 108 56 128 115 9 24 28 56 42 71 25 26
27 36 34 155 5 71 13 153 19 183 20 106 28 175 20 178 -14 5 -52 91 -45 101 3
6 -5 15 -17 22 -13 7 -39 24 -58 39 -19 15 -51 35 -70 46 -19 10 -68 48 -108
83 -65 57 -73 67 -67 90 4 14 12 33 19 41 26 31 47 83 36 94 -5 5 -10 18 -10
27 0 10 -13 38 -29 62 l-30 43 14 65 c7 35 23 90 34 122 11 32 28 106 36 165
9 59 20 111 24 115 4 4 28 -4 52 -18 24 -13 52 -25 61 -25 17 0 86 -20 140
-42 17 -6 35 -27 49 -55 30 -63 70 -86 134 -78 28 3 57 6 66 6 10 0 20 18 29
52 7 29 16 57 21 63 5 6 5 33 0 60 -6 38 -25 73 -83 157 -65 92 -75 112 -71
140 9 68 6 85 -26 123 -21 26 -31 49 -31 71 0 26 -56 137 -98 193 -8 11 -30
-32 -25 -50 7 -25 -19 -27 -62 -4 -17 9 -42 13 -57 10 -18 -4 -27 -1 -25 6 3
17 -45 38 -71 31 -12 -3 -22 -11 -22 -18 0 -14 -34 -25 -90 -31 -19 -2 -64 -9
-100 -16 -51 -10 -67 -18 -75 -36 -8 -18 -18 -22 -58 -22 l-48 0 8 63 c21 161
-3 341 -50 371 -40 26 -211 85 -277 96 -36 6 -81 14 -100 18 -49 11 -73 5 -67
-19 4 -14 -1 -21 -19 -25 -13 -3 -24 -11 -24 -16 0 -5 -5 -8 -11 -6 -6 2 -10
7 -10 11 1 4 -6 21 -15 38 -15 30 -15 50 1 109 3 14 8 34 10 45 2 11 11 58 20
105 15 81 15 88 -2 144 -18 59 -19 60 -73 79 -68 23 -149 18 -178 -11 -11 -11
-24 -21 -30 -23 -7 -2 -14 -50 -18 -116 -6 -94 -4 -114 9 -127 12 -13 13 -23
6 -53 -26 -101 -48 -119 -99 -82 -16 13 -30 28 -31 33 -3 34 6 158 17 221 5
36 39 112 55 125 13 11 29 51 33 80 5 42 10 45 69 45 49 0 52 2 52 25 0 21 -6
26 -42 33 -50 10 -53 21 -24 94 10 26 35 109 56 183 20 74 47 169 60 211 24
75 77 291 90 361 7 39 0 88 -13 88 -4 0 -22 -24 -41 -53z m135 -2094 c3 -21
13 -71 21 -112 10 -52 11 -77 4 -84 -22 -22 -35 13 -38 105 -2 51 -8 97 -13
102 -14 14 -12 26 5 26 9 0 17 -14 21 -37z m-786 -1308 c36 -58 19 -128 -57
-239 -55 -80 -56 -78 110 -296 43 -57 94 -134 112 -171 19 -37 49 -80 68 -95
36 -30 63 -72 53 -82 -3 -3 -17 5 -30 17 l-25 23 -34 -21 c-28 -17 -50 -21
-118 -21 -125 0 -288 20 -336 41 -23 10 -49 16 -57 13 -15 -6 -93 20 -154 51
-23 12 -37 14 -45 7 -8 -7 -28 -7 -60 1 -36 8 -60 8 -93 -1 -59 -16 -74 -15
-96 5 -25 22 -23 71 3 100 18 18 23 41 30 117 15 181 34 230 101 270 24 14
114 49 201 80 183 63 293 121 357 188 25 26 46 48 47 48 1 0 11 -16 23 -35z
m482 -74 c25 -16 56 -32 69 -36 13 -4 33 -13 44 -19 33 -21 145 -41 228 -41
l78 0 9 -35 c5 -19 16 -73 24 -120 8 -47 22 -121 32 -164 9 -44 14 -95 11
-114 -4 -20 3 -71 14 -121 16 -65 20 -109 17 -183 -2 -54 -8 -102 -14 -108
-10 -10 -71 -2 -129 19 -16 5 -57 17 -90 25 -33 8 -94 24 -135 35 -41 11 -87
21 -102 21 -19 0 -33 8 -45 28 -9 15 -40 50 -68 77 -29 28 -78 86 -110 130
-32 44 -82 110 -111 146 -121 149 -116 217 28 363 50 50 97 90 105 88 19 -4
73 17 73 29 0 16 26 9 72 -20z"/>
<path d="M1774 5652 c-21 -16 -144 -185 -144 -196 0 -3 -55 -90 -122 -193 -66
-104 -137 -216 -157 -250 -20 -34 -39 -63 -42 -63 -12 0 -22 94 -10 98 13 4
15 68 2 76 -5 3 -23 30 -39 60 -19 33 -49 67 -82 90 -47 34 -54 36 -73 23 -24
-16 -83 -124 -93 -172 -4 -16 -11 -35 -16 -42 -13 -17 0 -70 19 -77 13 -5 15
-17 9 -69 -5 -48 -3 -67 10 -85 8 -12 14 -37 12 -54 -2 -27 -9 -34 -35 -42
-39 -11 -56 0 -84 56 -11 21 -26 38 -35 38 -13 0 -15 -8 -9 -47 6 -48 6 -48
-37 -75 -65 -40 -85 -67 -92 -122 -6 -53 -28 -86 -56 -86 -28 0 -60 -38 -60
-73 0 -18 -12 -50 -25 -72 -29 -46 -31 -72 -11 -120 26 -60 60 -73 169 -59 31
4 57 4 57 0 0 -4 -9 -20 -21 -35 -17 -23 -20 -37 -14 -71 9 -53 28 -60 66 -24
26 25 29 34 24 62 -9 46 2 75 26 69 10 -3 19 -1 19 3 0 5 9 12 20 15 11 3 20
13 20 20 0 8 9 19 19 25 16 8 23 4 40 -23 12 -19 16 -36 11 -41 -5 -5 -6 -21
-3 -36 5 -26 -2 -43 -45 -113 -10 -18 -40 -39 -77 -55 -91 -42 -125 -61 -125
-74 0 -6 10 -26 21 -45 21 -33 21 -35 3 -48 -11 -8 -23 -15 -28 -15 -5 0 -35
-18 -67 -40 -32 -22 -68 -40 -80 -40 -29 0 -98 -40 -104 -60 -3 -9 -23 -35
-44 -58 -56 -60 -100 -158 -102 -226 -2 -56 9 -83 55 -136 13 -14 28 -48 35
-77 11 -44 10 -56 -4 -82 -8 -17 -20 -31 -26 -31 -7 0 -9 -9 -6 -22 3 -12 2
-29 -4 -39 -6 -13 -4 -30 7 -59 14 -34 21 -40 45 -40 17 0 32 6 35 15 8 19 28
19 44 0 7 -8 21 -15 31 -15 14 0 21 -9 26 -30 3 -20 13 -32 27 -36 12 -3 32
-21 45 -40 23 -33 24 -40 18 -142 l-6 -106 45 -71 c190 -294 204 -317 204
-349 0 -19 -103 -82 -156 -95 -118 -30 -198 -87 -236 -169 l-20 -44 23 -24
c12 -13 32 -27 43 -30 12 -4 35 -17 51 -29 17 -13 93 -46 170 -74 77 -28 151
-58 165 -66 72 -41 109 -59 155 -76 27 -9 75 -27 105 -39 116 -45 207 -72 255
-77 28 -2 69 -13 92 -23 24 -11 47 -20 53 -20 6 0 18 -4 28 -10 23 -12 200
-67 276 -85 71 -17 147 -19 231 -5 33 5 80 12 105 15 25 3 68 16 96 30 28 14
79 30 114 36 56 9 120 28 285 85 56 19 108 52 101 63 -3 4 -7 20 -10 36 -7 39
-25 55 -72 62 -21 3 -46 11 -54 18 -8 7 -39 25 -67 39 -29 14 -53 30 -53 34 0
4 -22 33 -49 63 -39 44 -51 65 -56 103 -4 26 -18 59 -30 74 -49 59 -127 257
-151 382 -11 59 -28 107 -55 157 -56 102 -68 151 -69 278 0 60 -4 128 -10 150
-17 72 -13 108 17 137 46 42 79 82 86 101 4 10 17 17 32 17 29 0 32 16 9 41
-16 17 -14 24 25 105 45 94 51 134 23 162 -15 15 -18 34 -17 112 2 106 9 140
31 140 49 0 124 79 124 131 0 21 -8 30 -41 44 -46 21 -54 33 -62 96 l-6 47 47
17 c55 21 79 39 99 78 16 31 9 85 -11 93 -7 3 -44 -13 -82 -34 -100 -57 -104
-58 -139 -9 -37 50 -141 113 -205 125 -25 4 -67 5 -95 1 -27 -3 -51 -5 -53 -4
-1 1 4 37 13 79 9 42 17 130 18 196 1 106 -1 123 -19 146 -11 15 -27 30 -35
34 -7 4 -24 12 -36 19 -15 7 -23 7 -23 1 0 -16 -22 -12 -36 8 -13 16 -13 16
-14 -2 0 -18 -1 -18 -27 -1 -23 16 -44 17 -157 12 -104 -4 -135 -2 -151 9 -10
8 -31 14 -46 14 -28 0 -39 19 -39 72 0 57 -39 32 -56 -35 -4 -17 -16 -32 -31
-38 -35 -13 -41 -12 -53 12 -10 17 2 42 81 177 51 86 134 220 184 297 50 77
112 172 137 210 83 128 109 195 62 157z m-169 -1507 c15 -58 25 -108 22 -111
-3 -3 -22 -1 -44 5 -21 6 -53 11 -70 11 -27 0 -37 7 -59 39 -34 53 -43 115
-19 141 14 16 31 20 80 20 l62 0 28 -105z m675 -902 c0 -24 -4 -43 -10 -43
-16 0 -90 32 -90 39 0 3 -3 15 -6 26 -5 18 0 20 50 20 l56 0 0 -42z m-1046
-319 c4 -21 12 -48 16 -59 5 -11 11 -32 14 -46 12 -53 67 -44 127 22 46 49 71
51 88 4 24 -68 101 -102 284 -125 40 -5 94 -18 120 -29 45 -19 47 -22 49 -63
4 -78 -1 -107 -26 -155 -25 -50 -111 -143 -132 -143 -7 0 -14 -7 -18 -15 -3
-8 -17 -15 -31 -15 -36 0 -100 -67 -109 -115 -7 -35 -8 -36 -25 -21 -10 9 -25
16 -34 16 -9 0 -18 4 -22 9 -3 5 -19 12 -35 16 -17 4 -28 11 -25 15 9 15 -70
162 -104 194 -21 20 -31 39 -31 59 0 39 -15 65 -65 112 -131 123 -226 246
-225 292 1 32 34 60 81 68 24 4 51 11 59 16 24 14 34 5 44 -37z m-240 -236
c-10 -33 -7 -95 7 -120 7 -13 25 -39 41 -59 79 -98 129 -231 93 -245 -8 -4
-15 -15 -15 -25 0 -10 -5 -19 -11 -19 -23 0 -121 115 -151 179 -27 56 -32 80
-36 164 -3 61 0 121 8 155 l12 56 30 -33 c21 -23 27 -38 22 -53z m1128 -225
c17 -38 35 -92 39 -122 5 -36 23 -79 55 -135 61 -103 91 -163 100 -200 6 -26
5 -28 -17 -21 -46 15 -54 12 -57 -25 -2 -19 -9 -38 -15 -42 -9 -5 -7 -20 6
-56 9 -28 17 -53 17 -57 0 -14 -48 9 -103 52 -66 50 -95 63 -138 63 -17 0 -51
9 -77 19 -26 10 -78 29 -117 41 -74 23 -105 43 -105 69 -1 9 -19 29 -41 44
-23 16 -39 30 -37 33 3 2 37 0 77 -5 84 -11 118 -3 154 33 14 14 32 26 40 26
26 0 59 49 76 112 18 64 95 238 106 238 4 0 20 -30 37 -67z"/>
<path d="M9979 5101 c-20 -22 -40 -55 -44 -73 -4 -18 -19 -51 -34 -73 -34 -53
-36 -139 -3 -206 12 -25 22 -51 22 -59 0 -7 7 -21 15 -30 20 -22 9 -50 -20
-50 -13 0 -25 -3 -27 -7 -5 -12 -111 -63 -131 -63 -9 0 -17 -4 -17 -8 0 -5
-21 -24 -47 -42 -27 -19 -67 -53 -90 -77 -30 -31 -50 -43 -71 -43 -16 0 -37
-9 -47 -20 -10 -11 -36 -23 -57 -26 -60 -10 -60 -11 4 -135 10 -20 18 -46 18
-57 0 -12 9 -22 21 -25 15 -4 20 -11 15 -22 -4 -11 13 -43 48 -91 56 -78 58
-87 41 -168 -7 -37 -6 -42 25 -67 31 -26 32 -28 20 -64 -15 -47 -7 -112 21
-168 12 -23 20 -44 18 -46 -2 -2 -26 -4 -54 -6 -107 -5 -225 -23 -247 -37 -13
-9 -44 -19 -68 -23 -25 -4 -61 -20 -80 -34 -19 -15 -57 -35 -83 -45 -27 -10
-51 -26 -54 -35 -3 -9 -29 -38 -57 -66 -38 -37 -57 -65 -71 -105 -14 -42 -36
-74 -94 -136 -81 -85 -192 -253 -217 -328 -13 -38 -14 -55 -4 -103 10 -51 19
-65 70 -114 32 -31 66 -73 74 -93 8 -20 39 -64 67 -96 64 -74 98 -80 130 -25
29 49 61 47 95 -5 20 -30 35 -41 63 -46 20 -4 45 -15 56 -25 11 -10 39 -19 65
-21 50 -3 51 -7 35 -91 -7 -34 -5 -40 26 -67 19 -17 63 -51 99 -78 57 -41 66
-52 70 -86 4 -31 12 -42 36 -56 45 -23 134 -128 134 -157 0 -18 5 -23 24 -23
33 0 39 -12 22 -47 -7 -15 -20 -41 -27 -58 -11 -23 -23 -31 -52 -36 -21 -3
-43 -11 -50 -18 -6 -6 -29 -11 -51 -11 -48 0 -62 -8 -67 -34 -3 -14 -18 -23
-54 -32 -35 -9 -59 -23 -80 -47 -16 -19 -44 -39 -61 -46 -67 -26 -135 -140
-99 -167 21 -16 227 -43 415 -54 230 -14 1426 -25 1530 -15 19 2 107 11 195
19 205 19 298 40 338 76 23 21 29 32 24 51 -7 27 -106 99 -136 99 -11 0 -52
32 -93 72 -40 39 -94 91 -119 115 l-46 44 -65 -35 c-65 -36 -98 -45 -98 -26 0
6 -11 10 -25 10 -14 0 -25 5 -25 10 0 15 -26 12 -40 -5 -19 -23 -46 -18 -72
15 -13 17 -40 49 -61 73 -21 23 -41 55 -45 71 -6 23 -16 32 -40 38 -24 6 -32
14 -32 31 0 30 -36 87 -55 87 -8 0 -19 9 -25 20 -11 21 -14 17 71 95 101 94
126 109 174 106 25 -1 68 5 97 14 28 8 73 15 98 15 50 0 54 3 175 141 22 25
69 78 105 119 36 41 82 91 102 111 64 65 68 77 65 167 -4 103 -12 112 -160
190 -116 60 -141 81 -196 155 l-33 47 7 124 c9 149 -5 205 -67 272 l-39 43 10
76 c6 42 11 132 11 199 0 68 3 138 6 155 l7 31 128 0 c158 0 171 8 190 110 16
79 20 86 65 93 47 8 74 33 74 69 0 17 5 28 13 28 29 0 49 36 41 74 -6 36 -6
36 21 26 64 -24 60 21 -7 87 -60 59 -82 67 -154 55 -44 -7 -58 -5 -105 18 -30
14 -67 38 -83 53 -19 18 -40 27 -61 27 -21 0 -40 9 -56 26 -20 22 -25 38 -29
115 -3 49 -9 90 -15 92 -5 1 -26 -31 -46 -72 -21 -43 -46 -80 -62 -89 -25 -15
-28 -15 -50 6 -31 29 -43 28 -58 -7 -22 -49 -45 -46 -120 14 l-68 55 4 -31 c7
-56 17 -94 31 -114 20 -28 18 -43 -16 -85 -16 -21 -30 -46 -30 -57 0 -32 -18
-42 -51 -30 -16 6 -29 14 -29 18 0 3 -13 23 -30 44 -16 21 -30 46 -30 56 0 12
-7 19 -19 19 -11 0 -30 15 -42 33 -12 17 -32 41 -44 52 -12 11 -24 28 -28 38
-12 33 -59 21 -106 -27 -40 -41 -46 -44 -70 -33 -14 7 -35 20 -46 29 -79 67
-77 65 -66 85 5 11 26 34 45 50 46 41 55 61 63 134 5 51 3 63 -10 71 -10 5
-17 16 -17 24 0 24 -50 135 -78 173 -40 55 -63 71 -106 71 -33 0 -45 -7 -77
-39z m-166 -808 c3 -5 12 -59 22 -122 9 -63 23 -131 31 -150 18 -43 11 -100
-19 -153 -19 -34 -25 -38 -62 -38 -47 0 -64 14 -88 73 -9 20 -20 37 -25 37 -5
0 -17 28 -25 63 -9 35 -23 76 -30 90 -10 20 -12 39 -6 70 4 23 8 45 9 50 0 4
30 21 68 38 37 16 74 34 82 39 19 11 37 12 43 3z m474 -175 c4 -7 8 -17 8 -23
3 -33 19 -86 29 -94 6 -5 40 -12 76 -16 54 -6 68 -4 79 9 26 32 61 13 42 -23
-8 -14 -7 -29 4 -56 9 -20 13 -40 11 -44 -3 -5 -44 -11 -91 -15 -93 -8 -101
-4 -140 57 -16 26 -22 28 -58 21 -34 -5 -39 -4 -34 10 4 9 17 55 29 101 22 84
30 97 45 73z m172 -334 c35 -7 38 -19 13 -51 l-17 -23 -23 40 c-24 42 -23 44
27 34z m-1539 -1044 c0 -5 15 -16 33 -23 18 -8 56 -43 87 -81 29 -36 87 -93
127 -126 40 -33 86 -79 102 -101 29 -39 48 -95 38 -106 -10 -10 -79 19 -110
47 -18 15 -45 31 -62 37 -25 8 -32 18 -42 57 -13 51 -37 78 -98 105 -22 10
-45 25 -51 32 -18 22 -56 147 -49 159 8 13 25 13 25 0z m2158 -90 c56 -11 122
-20 145 -20 28 0 62 -11 102 -33 59 -31 60 -33 63 -79 2 -32 -3 -59 -17 -87
-33 -64 -115 -155 -189 -211 -39 -28 -72 -60 -75 -71 -5 -19 -33 -36 -43 -26
-3 3 2 19 10 36 22 42 20 82 -7 122 -65 95 -177 336 -177 380 0 15 77 10 188
-11z m-469 -79 c31 -32 88 -83 126 -113 96 -76 125 -106 147 -156 21 -46 18
-89 -8 -126 -50 -72 -257 -246 -292 -246 -4 0 -23 -14 -41 -32 -23 -22 -36
-29 -45 -22 -52 37 -67 45 -83 40 -23 -7 -156 -163 -149 -175 3 -5 46 -7 96
-6 83 3 116 -4 90 -20 -6 -4 -7 -11 -4 -17 4 -6 8 -40 10 -76 2 -64 2 -64 -31
-78 -19 -7 -37 -24 -40 -36 -11 -36 -36 -58 -64 -58 -15 0 -44 -9 -65 -20 -40
-20 -56 -19 -56 5 0 7 -11 16 -25 19 -17 4 -35 24 -56 61 -17 30 -44 66 -60
79 -16 14 -28 29 -27 33 1 4 -6 42 -17 83 -15 64 -25 81 -61 115 -25 23 -45
53 -49 71 -8 39 -37 67 -97 93 -48 20 -115 81 -200 183 -83 98 -77 124 53 221
84 64 127 109 165 175 20 36 28 38 64 17 14 -8 35 -14 47 -15 12 0 26 -7 31
-16 7 -13 18 -15 48 -10 21 4 77 11 123 15 62 7 88 14 97 26 11 14 24 17 71
13 36 -3 72 0 93 8 47 17 68 21 114 23 35 1 44 -5 95 -58z"/>
</g>
</svg>
