<?xml version="1.0" standalone="no"?>
<!DOCTYPE svg PUBLIC "-//W3C//DTD SVG 20010904//EN"
 "http://www.w3.org/TR/2001/REC-SVG-20010904/DTD/svg10.dtd">
<svg version="1.0" xmlns="http://www.w3.org/2000/svg"
 width="640.000000pt" height="1280.000000pt" viewBox="0 0 640.000000 1280.000000"
 preserveAspectRatio="xMidYMid meet">
<metadata>
Created by potrace 1.15, written by Peter Selinger 2001-2017
</metadata>
<g transform="translate(0.000000,1280.000000) scale(0.100000,-0.100000)"
fill="#607d8b" stroke="none">
<path d="M2860 12763 c0 -21 -7 -47 -15 -57 -17 -23 -22 -227 -6 -268 5 -13
10 -91 12 -173 l3 -150 -62 -310 c-35 -170 -83 -413 -108 -540 -48 -244 -70
-335 -82 -335 -4 0 -14 5 -22 10 -13 9 -11 14 13 31 31 23 37 68 12 89 -21 17
-163 15 -267 -3 l-78 -14 0 28 c0 18 -7 32 -19 39 -29 15 -31 14 -31 -33 0
-24 -6 -49 -12 -56 -18 -17 -18 -265 0 -283 8 -8 12 -57 12 -170 l0 -159 -64
-247 c-98 -375 -182 -634 -255 -785 -37 -75 -35 -77 79 -101 l80 -18 2 -440
c2 -242 2 -441 0 -443 -3 -3 -134 36 -141 42 -3 2 5 10 17 19 56 39 51 88 -9
104 -38 11 -75 8 -266 -16 l-53 -7 0 31 c0 18 -6 32 -16 36 -24 9 -24 9 -24
-33 0 -23 -6 -44 -16 -51 -16 -14 -16 -96 4 -430 9 -148 8 -158 -13 -225 -13
-38 -58 -182 -100 -320 -164 -534 -224 -703 -317 -889 -27 -54 -46 -102 -41
-106 10 -9 86 -36 140 -50 l43 -11 0 -875 c0 -797 -1 -876 -16 -870 -9 3 -27
9 -40 12 -31 8 -30 10 6 41 49 41 37 81 -29 93 -37 7 -127 1 -258 -16 l-53 -7
0 31 c0 18 -6 32 -16 36 -24 9 -24 9 -24 -29 0 -20 -7 -46 -16 -59 -16 -26
-16 -119 4 -411 l10 -140 -110 -340 c-248 -768 -305 -925 -423 -1172 -35 -73
-60 -135 -55 -138 5 -3 51 -15 102 -26 51 -11 94 -22 96 -23 1 -2 2 -271 2
-597 0 -327 3 -811 6 -1076 l7 -482 41 -15 c102 -37 131 -41 331 -40 175 0
213 3 300 24 91 22 126 24 395 27 l295 4 -3 -80 -4 -81 -71 5 c-40 3 -125 7
-189 10 l-118 5 0 -141 0 -140 273 8 c149 4 796 8 1436 7 l1163 0 -6 50 c-3
28 -6 87 -6 130 l0 79 -180 -7 -180 -7 0 79 0 79 137 6 c237 12 376 9 424 -9
93 -34 159 -45 299 -51 157 -6 260 7 396 48 l71 21 6 376 c4 206 7 689 7 1073
l0 698 58 16 c31 9 72 23 89 30 l33 14 -54 108 c-115 230 -202 475 -380 1063
-52 173 -104 342 -116 375 -19 55 -20 73 -14 207 l7 147 49 10 c27 6 75 11
106 11 56 -1 57 -1 83 -44 l26 -43 139 -21 c242 -37 344 -45 515 -39 178 5
241 18 312 65 l41 27 -75 2 c-236 8 -364 34 -594 125 -77 31 -179 67 -226 82
l-87 26 33 33 c25 25 32 40 28 56 -11 44 -87 52 -257 26 -55 -8 -100 -15 -102
-15 -2 0 -4 15 -6 33 -2 24 -8 33 -25 35 -21 3 -23 -1 -23 -35 0 -22 -6 -45
-12 -52 -18 -17 -17 -257 0 -288 8 -14 12 -68 12 -153 l0 -132 -59 -177 c-33
-97 -114 -342 -180 -546 -133 -406 -189 -552 -286 -753 l-64 -133 26 -10 c15
-5 60 -17 100 -26 l73 -16 0 -103 0 -103 -193 125 -193 124 -72 0 -72 0 0 313
0 312 48 29 c171 106 371 304 489 484 l38 57 -4 891 -4 891 109 27 c59 14 109
28 111 30 2 1 -28 68 -66 147 -149 313 -259 629 -360 1036 -43 170 -49 251
-32 423 l6 65 55 12 c30 6 76 12 102 12 45 1 49 -1 73 -39 31 -49 41 -53 175
-73 282 -43 537 -54 675 -29 69 13 165 56 172 78 3 8 -46 13 -154 17 -194 7
-262 23 -503 117 -98 38 -200 75 -227 81 -26 7 -57 16 -67 22 -18 9 -18 10 7
24 30 15 45 58 30 82 -5 8 -25 19 -44 23 -34 7 -200 -6 -271 -22 -35 -7 -38
-6 -38 15 0 24 -23 55 -41 55 -5 0 -9 -20 -9 -44 0 -26 -5 -46 -12 -48 -17 -6
-23 -191 -9 -258 6 -29 14 -112 18 -184 l6 -132 -36 -110 c-20 -60 -81 -256
-136 -435 -115 -375 -178 -546 -259 -712 l-58 -119 27 -14 c15 -7 58 -22 96
-32 l68 -19 3 -163 3 -163 -209 201 -209 201 -79 3 -79 3 -3 227 -2 228 103
102 c120 121 193 214 244 318 l38 75 5 899 5 898 68 24 c38 12 71 25 75 28 3
3 -6 27 -21 53 -71 133 -119 282 -213 675 -40 171 -80 331 -87 357 -10 32 -12
88 -9 188 l4 141 42 10 c22 6 67 14 98 17 54 7 59 6 80 -20 58 -70 59 -71 168
-88 213 -35 391 -49 540 -44 161 5 237 22 302 64 l42 28 -60 2 c-248 10 -374
36 -594 123 -82 32 -187 71 -234 86 -47 14 -86 30 -86 34 0 4 11 12 25 18 33
15 43 57 20 82 -15 17 -31 20 -94 20 -68 0 -153 -10 -233 -26 -26 -5 -28 -4
-28 30 0 29 -4 36 -20 36 -16 0 -20 -7 -20 -36 0 -19 -7 -42 -16 -51 -12 -13
-14 -37 -11 -142 3 -69 11 -192 18 -272 l14 -146 -87 -342 c-95 -371 -155
-564 -218 -698 -29 -62 -37 -89 -30 -98 6 -7 40 -19 75 -26 l65 -13 0 -137 0
-138 -82 35 c-46 19 -87 39 -92 44 -11 11 -14 108 -26 900 -5 371 -13 791 -16
933 -5 213 -4 257 7 257 26 0 204 53 215 64 9 8 3 35 -24 103 -19 51 -33 96
-29 99 3 4 47 13 96 20 88 13 174 46 199 77 10 12 -11 15 -150 20 -90 2 -170
8 -179 11 -25 11 -97 340 -179 821 -23 132 -57 323 -76 424 -30 160 -34 199
-32 314 l3 131 60 13 c33 7 81 12 106 13 44 0 47 -2 74 -44 28 -44 29 -45 114
-60 107 -20 302 -42 441 -51 117 -8 295 7 362 31 44 15 108 54 108 65 0 3 -71
9 -157 12 -191 6 -274 26 -513 120 -91 35 -195 72 -232 82 -38 10 -68 20 -68
22 0 2 14 16 30 30 17 14 30 35 30 48 0 56 -60 62 -317 29 l-53 -7 0 31 c0 18
-6 32 -16 36 -24 9 -24 9 -24 -31z m-350 -2038 c36 -52 37 -45 -31 -218 -22
-53 -39 -100 -39 -102 0 -7 63 -32 138 -56 l62 -21 0 -1044 0 -1045 -41 -18
c-31 -14 -49 -16 -77 -10 -20 5 -40 9 -44 9 -5 0 -8 235 -8 523 l0 523 51 13
c28 7 53 20 56 28 3 8 -11 53 -32 101 -55 128 -106 289 -170 542 -31 124 -74
291 -96 371 -37 138 -39 155 -39 287 l0 140 53 10 c28 5 82 10 119 11 l67 1
31 -45z m-657 -2529 c25 -40 32 -44 90 -55 34 -7 74 -14 90 -17 l27 -6 0 -337
0 -338 57 -94 c79 -133 179 -265 262 -347 l71 -70 0 -616 0 -616 -74 0 -74 0
-219 -199 -218 -199 -7 576 c-4 318 -6 582 -4 587 2 6 50 22 106 35 56 13 104
29 106 35 3 6 -27 76 -65 156 -147 305 -268 657 -366 1063 -34 142 -34 143
-27 302 l7 159 55 12 c30 6 78 11 105 12 49 1 51 0 78 -43z m-729 -3671 c15
-25 28 -45 29 -45 1 0 53 -9 115 -20 l113 -19 87 -88 c95 -97 178 -162 285
-225 l69 -40 -6 -132 c-3 -72 -8 -340 -11 -596 -3 -256 -8 -525 -11 -597 l-6
-133 -64 0 -63 0 -168 -116 c-92 -64 -180 -125 -195 -136 l-28 -19 0 109 0
110 28 7 c91 22 132 38 132 51 0 8 -20 54 -44 102 -111 221 -194 452 -356 987
-60 198 -120 392 -133 431 -23 66 -24 80 -19 227 l5 157 36 9 c53 14 81 18
133 20 45 1 47 0 72 -44z"/>
</g>
</svg>
